<?xml version="1.0" standalone="no"?>
<!DOCTYPE svg PUBLIC "-//W3C//DTD SVG 20010904//EN"
 "http://www.w3.org/TR/2001/REC-SVG-20010904/DTD/svg10.dtd">
<svg version="1.0" xmlns="http://www.w3.org/2000/svg"
 width="300.000000pt" height="230.000000pt" viewBox="0 0 300.000000 230.000000"
 preserveAspectRatio="xMidYMid meet">
<metadata>
Created by potrace 1.10, written by Peter Selinger 2001-2011
</metadata>
<g transform="translate(0.000000,230.000000) scale(0.100000,-0.100000)"
fill="#000000" stroke="none">
<path d="M1282 2075 c-151 -40 -265 -110 -357 -217 -141 -164 -198 -391 -146
-584 27 -103 99 -261 191 -424 74 -129 204 -337 220 -350 3 -3 14 -18 24 -35
23 -36 117 -165 183 -253 l48 -63 24 28 c12 15 31 37 40 48 9 11 27 37 39 57
13 20 26 38 30 40 4 2 23 27 41 56 19 30 39 59 45 65 15 16 166 245 166 252 0
3 15 29 33 58 50 77 64 101 66 112 1 6 8 17 14 25 41 52 171 333 165 358 -1 4
5 21 12 37 22 53 15 280 -11 311 -5 6 -6 13 -3 16 5 5 -40 104 -81 179 -19 34
-119 137 -168 173 -56 41 -193 102 -262 117 -95 20 -225 17 -313 -6z m3264 -39
c232 -74 405 -268 450 -507 10 -53 14 -107 11 -146 -20 -208 -228 -598 -570
-1070 -45 -62 -85 -113 -89 -113 -19 0 -298 403 -419 608 -161 269 -230 443
-237 593 -5 115 11 190 67 304 88 179 275 319 474 355 84 15 223 4 313 -24z" fill="#FBB03A"/>

    <path d="M1282 2075 c-151 -40 -265 -110 -357 -217 -141 -164 -198 -391 -146
-584 27 -103 99 -261 191 -424 74 -129 204 -337 220 -350 3 -3 14 -18 24 -35
23 -36 117 -165 183 -253 l48 -63 24 28 c12 15 31 37 40 48 9 11 27 37 39 57
13 20 26 38 30 40 4 2 23 27 41 56 19 30 39 59 45 65 15 16 166 245 166 252 0
3 15 29 33 58 50 77 64 101 66 112 1 6 8 17 14 25 41 52 171 333 165 358 -1 4
5 21 12 37 22 53 15 280 -11 311 -5 6 -6 13 -3 16 5 5 -40 104 -81 179 -19 34
-119 137 -168 173 -56 41 -193 102 -262 117 -95 20 -225 17 -313 -6z m364 -39
c232 -74 405 -268 450 -507 10 -53 14 -107 11 -146 -20 -208 -228 -598 -570
-1070 -45 -62 -85 -113 -89 -113 -19 0 -298 403 -419 608 -161 269 -230 443
-237 593 -5 115 11 190 67 304 88 179 275 319 474 355 84 15 223 4 313 -24z"/>

<path d="M1302 1960 c-106 -28 -187 -75 -268 -155 -235 -234 -229 -608 14
-836 234 -220 590 -213 818 16 230 231 230 591 0 820 -82 81 -162 127 -272
155 -96 25 -197 25 -292 0z m3412 -40 c124 -39 241 -129 306 -237 57 -93 79
-174 80 -284 0 -162 -49 -281 -164 -394 -83 -82 -145 -118 -252 -145 -98 -25
-170 -25 -268 0 -109 28 -170 63 -256 150 -115 115 -160 222 -160 385 -1 153
50 277 159 386 87 87 201 144 326 163 51 7 165 -5 229 -24z" fill="#FFFFFF"/>

    <path d="M1302 1960 c-106 -28 -187 -75 -268 -155 -235 -234 -229 -608 14
-836 234 -220 590 -213 818 16 230 231 230 591 0 820 -82 81 -162 127 -272
155 -96 25 -197 25 -292 0z m312 -40 c124 -39 241 -129 306 -237 57 -93 79
-174 80 -284 0 -162 -49 -281 -164 -394 -83 -82 -145 -118 -252 -145 -98 -25
-170 -25 -268 0 -109 28 -170 63 -256 150 -115 115 -160 222 -160 385 -1 153
50 277 159 386 87 87 201 144 326 163 51 7 165 -5 229 -24z"/>

<path d="M1181 1782 c-14 -16 -39 -54 -55 -85 -26 -52 -31 -57 -61 -57 -33 0
-65 -25 -65 -51 0 -21 20 -39 44 -39 18 -1 17 -4 -11 -28 l-32 -27 12 -181 c8
-124 16 -186 26 -197 9 -12 29 -17 66 -17 60 0 78 14 73 57 l-3 28 285 0 285
0 -3 -28 c-2 -15 2 -35 8 -43 15 -18 104 -19 117 -1 14 16 22 106 24 260 l2
129 -28 22 -29 23 26 6 c58 15 35 87 -27 87 -31 0 -36 5 -66 60 -17 33 -42 71
-55 85 l-23 25 -242 0 -241 0 -27 -28z m5415 -29 c13 -14 49 -77 79 -138 30
-62 62 -115 70 -119 17 -6 19 -41 9 -184 l-7 -92 -397 0 -397 0 -7 133 c-6
121 -5 133 11 147 10 8 42 64 72 124 81 167 59 156 321 156 l221 0 25 -27z
m-616 -158 c0 -8 -9 -15 -20 -15 -20 0 -26 11 -13 23 12 13 33 7 33 -8z m778
-2 c6 -19 -35 -16 -42 3 -4 11 0 15 16 12 12 -2 23 -9 26 -15z m-718 -434 c0
-29 -2 -30 -37 -27 -33 3 -38 7 -41 31 -3 26 -1 27 37 27 39 0 41 -1 41 -31z
m708 4 c-2 -23 -9 -29 -34 -31 -27 -3 -32 1 -36 22 -6 32 -2 36 39 36 32 0 34
-2 31 -27z" fill="#db592d"/>

    <path d="M1181 1782 c-14 -16 -39 -54 -55 -85 -26 -52 -31 -57 -61 -57 -33 0
-65 -25 -65 -51 0 -21 20 -39 44 -39 18 -1 17 -4 -11 -28 l-32 -27 12 -181 c8
-124 16 -186 26 -197 9 -12 29 -17 66 -17 60 0 78 14 73 57 l-3 28 285 0 285
0 -3 -28 c-2 -15 2 -35 8 -43 15 -18 104 -19 117 -1 14 16 22 106 24 260 l2
129 -28 22 -29 23 26 6 c58 15 35 87 -27 87 -31 0 -36 5 -66 60 -17 33 -42 71
-55 85 l-23 25 -242 0 -241 0 -27 -28z m515 -29 c13 -14 49 -77 79 -138 30
-62 62 -115 70 -119 17 -6 19 -41 9 -184 l-7 -92 -397 0 -397 0 -7 133 c-6
121 -5 133 11 147 10 8 42 64 72 124 81 167 59 156 321 156 l221 0 25 -27z
m-616 -158 c0 -8 -9 -15 -20 -15 -20 0 -26 11 -13 23 12 13 33 7 33 -8z m778
-2 c6 -19 -35 -16 -42 3 -4 11 0 15 16 12 12 -2 23 -9 26 -15z m-718 -434 c0
-29 -2 -30 -37 -27 -33 3 -38 7 -41 31 -3 26 -1 27 37 27 39 0 41 -1 41 -31z
m708 4 c-2 -23 -9 -29 -34 -31 -27 -3 -32 1 -36 22 -6 32 -2 36 39 36 32 0 34
-2 31 -27z"/>

<path d="M1227 1732 c-20 -22 -87 -165 -87 -185 0 -8 7 -18 16 -21 9 -3 143
-6 299 -6 241 0 284 2 295 15 11 13 6 30 -25 98 -56 123 -42 117 -280 117
-182 0 -204 -2 -218 -18z m4356 -97 l37 -75 -271 0 c-149 0 -269 3 -267 8 2 4
18 37 36 75 l31 67 198 0 199 0 37 -75z" fill="#64A9BF"/>

    <path d="M1227 1732 c-20 -22 -87 -165 -87 -185 0 -8 7 -18 16 -21 9 -3 143
-6 299 -6 241 0 284 2 295 15 11 13 6 30 -25 98 -56 123 -42 117 -280 117
-182 0 -204 -2 -218 -18z m456 -97 l37 -75 -271 0 c-149 0 -269 3 -267 8 2 4
18 37 36 75 l31 67 198 0 199 0 37 -75z"/>

<path d="M1107 1472 c-10 -10 -17 -31 -17 -46 0 -33 22 -42 110 -47 53 -3 65
-1 65 11 0 11 -17 17 -68 22 -77 7 -82 10 -73 34 5 12 13 14 32 10 71 -18 84
-19 84 -3 0 9 -16 19 -44 26 -60 15 -70 14 -89 -7z"/>
<path d="M1708 1478 c-23 -6 -38 -16 -38 -25 0 -16 13 -15 82 2 19 5 27 2 32
-11 4 -9 5 -19 2 -21 -2 -3 -35 -8 -73 -11 -51 -5 -68 -11 -68 -22 0 -15 53
-17 132 -4 41 6 53 42 29 79 -18 27 -37 29 -98 13z"/>
<path d="M1296 1444 c-8 -20 19 -70 43 -84 25 -13 196 -13 220 0 22 11 45 64
37 85 -8 23 -291 22 -300 -1z m262 -36 c-14 -21 -25 -23 -106 -26 -72 -2 -93
0 -106 13 -9 9 -16 21 -16 26 0 5 53 9 121 9 l121 0 -14 -22z"/>
<path d="M1110 1276 c0 -17 70 -26 203 -26 75 0 97 3 97 13 0 11 -28 16 -112
20 -165 10 -188 9 -188 -7z"/>
<path d="M1567 1281 c-103 -8 -104 -25 -2 -29 111 -5 227 7 222 21 -4 14 -100
17 -220 8z"/>
</g>
</svg>